<?xml version="1.0" encoding="UTF-8"?><svg id="Camada_2" xmlns="http://www.w3.org/2000/svg" viewBox="0 0 490.03 90"><defs><style>.cls-1{fill:#2c3e51;}</style></defs><g id="CONTEÚDOS"><g><path class="cls-1" d="M58.17,90l-1.64-.73C54.22,88.25,0,63.88,0,31.24,0,21.71,2.85,13.8,8.23,8.36,13.64,2.89,21.53,0,31.06,0c11.68,0,21.33,7.41,27.12,13.24C63.96,7.41,73.62,0,85.32,0c9.39,0,17.28,2.87,22.83,8.31,5.63,5.52,8.61,13.45,8.61,22.93,0,33.03-54.61,57.03-56.93,58.04l-1.65,.71ZM31.06,8.22c-14.72,0-22.83,8.18-22.83,23.02,0,13.9,13.72,26.76,25.23,35.1,10.33,7.48,20.8,12.75,24.75,14.64,8.86-4.15,50.33-24.92,50.33-49.74,0-14.63-8.46-23.02-23.21-23.02-7.92,0-15.64,4.98-21.71,11.27,5.83,7.65,9.57,16.08,9.57,21.93,0,4.52-1.97,8.6-5.56,11.51-2.74,2.22-6.28,3.6-9.24,3.6-5.46,0-15.21-5.05-15.21-15.11,0-5.86,3.74-14.29,9.58-21.94-6.07-6.28-13.78-11.26-21.69-11.26Zm27.12,17.8c-4.2,5.88-6.79,11.82-6.79,15.4,0,5.09,5.76,6.89,6.99,6.89,1.34,0,6.58-1.8,6.58-6.89,0-3.58-2.58-9.52-6.78-15.4Z"/><g><path id="Caminho_850" class="cls-1" d="M335.68,27.32c-5.16-5.72-12.34-9.59-19.18-9.59-16.25,0-29.26,11.32-29.26,28.25s13,27.52,29.26,27.52c2.79,0,8.1-1.29,12.57-3.7,2.67-1.43,4.58-3.51,6.82-5.74l-6.76-7.15c-2.47,3.25-8.48,5.22-12.63,5.22-9.86,0-15.8-7.73-15.8-16.14s5.94-16.14,15.81-16.14c3.59,0,8.8,2.17,11.94,5.42l7.24-7.94Z"/><path id="Caminho_851" class="cls-1" d="M377.06,72.62h12.35s.05-31.15,.05-31.15c0-7.55,0-24-23.1-24-5.43,0-19.02,2.4-21.2,4.59l3.19,10.87c3.61-3.33,10.77-3.67,16.4-3.67,3.65,.03,7.17,1.32,9.96,3.67,1.37,1.09,1.52,1.9,1.52,4.61v1.37h-2.31c-6.73,0-15.4-1.05-22.31,1.47-6.49,2.36-11.18,8.32-11.18,17.02,0,10.55,9.14,16.06,19.17,16.06,7.21,0,13.19-1.08,17.02-7.08h.44v6.24Zm.14-21.4c0,7.44-5.1,12.25-14.34,12.25-4.4,0-9.47-2.11-9.47-7,0-7.67,11.77-7.58,19.21-7.58h4.6v2.33Z"/><path id="Caminho_852" class="cls-1" d="M402.19,72.62h12.35v-28.36c0-2.87,1.65-13.35,13.27-13.35,2.02,.07,4.03,.4,5.97,.99v-12.8c-1.43-.48-2.92-.74-4.42-.77-6.48,0-11.93,3.64-14.61,9.71h-.21v-8.39h-12.35v52.96Z"/><path id="Caminho_853" class="cls-1" d="M490.03,49.08v-3.7c0-18.72-10.2-29.26-25.22-29.26-16.25,0-27.48,11.32-27.48,28.24s11.23,28.25,27.48,28.25c8.52,0,16.48-3.03,22.75-10.76l-9.64-7.29c-3.36,4.15-7.73,7.29-14.46,7.29-7.51,0-12.02-4.82-12.92-12.78h39.48Zm-39.48-10.09c1.01-7.73,4.32-11.77,12.28-11.77,8.41,0,13.64,3.92,13.75,11.77h-26.03Z"/><path id="Caminho_854" class="cls-1" d="M165.74,70.87h7l14.57-42.7h.23l15.59,42.7h7l15.36-52.19h-6.78l-12.31,43.72h-.23l-15.48-43.72h-6.44l-14.57,43.72h-.23l-12.65-43.72h-7.46l16.38,52.19Z"/><path id="Caminho_855" class="cls-1" d="M271.74,56.86c-3.23,5.65-10.11,9.26-16.67,9.26-15.06,0-18.83-14.01-18.83-19.66h41.74v-4.74c0-12.09-8.07-24.4-23.34-24.4-14.52,0-24.85,11.75-24.85,27.34s10,27.56,25.17,27.56c8.82,0,16.46-3.28,21.51-11.18l-4.73-4.18Zm-35.5-16.49c0-2.71,3.98-16.94,18.07-16.94,9.57,0,17.21,7.68,17.21,16.94h-35.28Z"/></g></g></g></svg>